<svg width="34" height="34" viewBox="0 0 34 34" fill="none" xmlns="http://www.w3.org/2000/svg">
<path d="M28.7503 5.1831C27.2221 3.63994 25.402 2.41637 23.3962 1.5837C21.3903 0.751029 19.2388 0.325903 17.067 0.333098C7.96699 0.333098 0.550326 7.74976 0.550326 16.8498C0.550326 19.7664 1.31699 22.5998 2.75033 25.0998L0.416992 33.6664L9.16699 31.3664C11.5837 32.6831 14.3003 33.3831 17.067 33.3831C26.167 33.3831 33.5837 25.9664 33.5837 16.8664C33.5837 12.4498 31.867 8.29976 28.7503 5.1831ZM17.067 30.5831C14.6003 30.5831 12.1837 29.9164 10.067 28.6664L9.56699 28.3664L4.36699 29.7331L5.75033 24.6664L5.41699 24.1498C4.04624 21.9615 3.31853 19.4319 3.31699 16.8498C3.31699 9.2831 9.48366 3.11643 17.0503 3.11643C20.717 3.11643 24.167 4.54976 26.7503 7.14977C28.0297 8.42287 29.0435 9.93734 29.733 11.6053C30.4225 13.2733 30.774 15.0616 30.767 16.8664C30.8003 24.4331 24.6337 30.5831 17.067 30.5831ZM24.6003 20.3164C24.1837 20.1164 22.1503 19.1164 21.7837 18.9664C21.4003 18.8331 21.1337 18.7664 20.8503 19.1664C20.567 19.5831 19.7837 20.5164 19.5503 20.7831C19.317 21.0664 19.067 21.0998 18.6503 20.8831C18.2337 20.6831 16.9003 20.2331 15.3337 18.8331C14.1003 17.7331 13.2837 16.3831 13.0337 15.9664C12.8003 15.5498 13.0003 15.3331 13.217 15.1164C13.4003 14.9331 13.6337 14.6331 13.8337 14.3998C14.0337 14.1664 14.117 13.9831 14.2503 13.7164C14.3837 13.4331 14.317 13.1998 14.217 12.9998C14.117 12.7998 13.2837 10.7664 12.9503 9.9331C12.617 9.1331 12.267 9.2331 12.017 9.21643H11.217C10.9337 9.21643 10.5003 9.31643 10.117 9.7331C9.75033 10.1498 8.68366 11.1498 8.68366 13.1831C8.68366 15.2164 10.167 17.1831 10.367 17.4498C10.567 17.7331 13.2837 21.8998 17.417 23.6831C18.4003 24.1164 19.167 24.3664 19.767 24.5498C20.7503 24.8664 21.6503 24.8164 22.367 24.7164C23.167 24.5998 24.817 23.7164 25.1503 22.7498C25.5003 21.7831 25.5003 20.9664 25.3837 20.7831C25.267 20.5998 25.017 20.5164 24.6003 20.3164Z" fill="#00A75A"/>
</svg>
